<svg id="Layer_1" data-name="Layer 1" xmlns="http://www.w3.org/2000/svg" viewBox="0 0 33 63"><defs><style>.cls-1{fill:#fff;}</style></defs><title>Company</title><path id="Exclusion_32" data-name="Exclusion 32" class="cls-1" d="M981.27,534h-9.54a9,9,0,0,1-9-9,9.15,9.15,0,0,1,.31-2.33l4.77-17.79a9.22,9.22,0,0,1,1.56-3.23,16.34,16.34,0,0,1-6.76-5.84,15.83,15.83,0,0,1,2.22-20.09,16.79,16.79,0,0,1,23.34,0,15.83,15.83,0,0,1,2.22,20.09,16.34,16.34,0,0,1-6.76,5.84,9.13,9.13,0,0,1,1.56,3.23L990,522.67a9,9,0,0,1-6.36,11A8.72,8.72,0,0,1,981.27,534Zm-4.77-33.7h0l-2.57,22,2.57,5.86,2.57-5.86Zm-9-8.28a10.5,10.5,0,0,0,2.1,3.09,11,11,0,0,0,7.58,3.36h.54a8.44,8.44,0,0,0,6.86-3.23,9.91,9.91,0,0,0,1.7-3.23Z" transform="translate(-960 -471)"/></svg>