<svg xmlns="http://www.w3.org/2000/svg" width="342" height="341.599" viewBox="0 0 342 341.599"><defs><style>.a{fill:#e74d89;}.b{fill:#b2215a;}</style></defs><path class="a" d="M168.111,8.5A159.444,159.444,0,1,1,8.6,168.011,159.385,159.385,0,0,1,168.111,8.5Z" transform="translate(2.889 2.855)"/><path class="b" d="M171,341.6C76.683,341.6,0,265.05,0,170.866,0,76.549,76.683,0,171,0S342,76.549,342,170.733,265.317,341.6,171,341.6ZM315.148,194.112c-4.943-1.6-45.155-13.493-90.977-6.279,19.1,52.369,26.852,95.119,28.322,103.936A145.017,145.017,0,0,0,315.148,194.112Zm-87.1,111.15c-2.138-12.825-10.687-57.445-31.127-110.616a2.476,2.476,0,0,1-.935.267C113.555,223.636,84.03,280.68,81.359,286.024A145.484,145.484,0,0,0,171,316.751,142.689,142.689,0,0,0,228.045,305.262ZM62.522,268.523c3.34-5.611,43.418-71.873,118.765-96.321,1.87-.668,3.874-1.2,5.745-1.737-3.607-8.283-7.615-16.566-11.89-24.715C102.2,167.527,31.395,166.591,24.982,166.458c0,1.47-.134,2.939-.134,4.409a145.975,145.975,0,0,0,37.673,97.657ZM28.055,141.075c6.546.134,66.663.4,135.063-17.768a932.455,932.455,0,0,0-54.105-84.3A146.282,146.282,0,0,0,28.055,141.075ZM136.8,29.123a768.054,768.054,0,0,1,54.506,85.366c51.968-19.5,73.877-48.9,76.549-52.636A145.612,145.612,0,0,0,171,25.116,151.652,151.652,0,0,0,136.8,29.123ZM284.02,78.687c-3.073,4.141-27.52,35.536-81.492,57.579,3.34,6.947,6.68,14.027,9.752,21.108,1.069,2.538,2.137,5.077,3.206,7.481,48.628-6.145,96.855,3.741,101.665,4.676A145.289,145.289,0,0,0,284.02,78.687Z"/></svg>