<svg id="Layer_1" data-name="Layer 1" xmlns="http://www.w3.org/2000/svg" viewBox="0 0 364 125"><defs><style>.cls-1{fill:#fff;}.cls-2,.cls-3,.cls-5,.cls-8{isolation:isolate;}.cls-3{font-size:23px;}.cls-3,.cls-5,.cls-8{font-family:Lato-Light, Lato;font-weight:300;}.cls-4{letter-spacing:-0.01em;}.cls-5{font-size:30px;}.cls-6{letter-spacing:-0.02em;}.cls-7{letter-spacing:-0.03em;}.cls-8{font-size:24px;}.cls-9{fill:#53c1de;}</style></defs><title>react</title><rect id="Rectangle_29-2" data-name="Rectangle 29-2" class="cls-1" width="364" height="125"/><g id="TRIBE_SCORE" data-name="TRIBE SCORE" class="cls-2"><text class="cls-3" transform="translate(125 90)">TRIBE S<tspan class="cls-4" x="79.69" y="0">C</tspan><tspan x="94.97" y="0">ORE</tspan></text></g><g id="REACT" class="cls-2"><text class="cls-5" transform="translate(151 46)">RE<tspan class="cls-6" x="35.61" y="0">A</tspan><tspan x="54.81" y="0">C</tspan><tspan class="cls-7" x="75.09" y="0">T</tspan></text></g><g id="_40" data-name=" 40" class="cls-2"><text class="cls-8" transform="translate(299 90)">40</text></g><path class="cls-1" d="M1544.29,314.46c0,5.34,5.22,10.32,13.44,13.13-1.65,8.27-.3,14.93,4.2,17.53s11.52.82,18.06-4.9c6.38,5.49,12.82,7.65,17.32,5s6-9.79,4.34-18.31c8.56-2.83,13.35-7.08,13.35-12.49,0-5.22-5.22-9.73-13.33-12.52,1.81-8.88.27-15.37-4.41-18.08-4.52-2.6-11-.33-17.51,5.3-6.73-6-13.19-7.8-17.87-5.09-4.51,2.61-5.8,9.39-4.15,17.81C1549.78,304.65,1544.29,309.26,1544.29,314.46Z" transform="translate(-1513 -250)"/><path class="cls-9" d="M1600,304.71c-.67-.23-1.34-.44-2-.64.11-.45.21-.91.31-1.37,1.53-7.43.53-13.42-2.89-15.39-3.27-1.89-8.63.08-14,4.79-.54.47-1.06.95-1.57,1.44-.34-.33-.68-.65-1-1-5.67-5-11.35-7.16-14.76-5.18s-4.25,7.52-2.87,14.56c.14.69.29,1.39.47,2.08-.81.22-1.59.47-2.33.73-6.65,2.31-10.89,6-10.89,9.72s4.55,7.79,11.48,10.16c.56.19,1.13.37,1.7.53-.19.74-.35,1.49-.5,2.24-1.31,6.92-.28,12.41,3,14.29s9,0,14.54-4.87c.44-.38.87-.78,1.31-1.21.55.54,1.12,1.05,1.7,1.55,5.34,4.6,10.61,6.45,13.87,4.56s4.46-7.85,3-15c-.11-.54-.24-1.1-.38-1.67l1.17-.37c7.2-2.38,11.88-6.24,11.88-10.18s-4.38-7.44-11.16-9.78Z" transform="translate(-1513 -250)"/><path class="cls-1" d="M1598.39,322.12c-.35.12-.7.23-1.06.33a62.66,62.66,0,0,0-3.18-7.95,63.06,63.06,0,0,0,3.06-7.84c.64.19,1.26.38,1.87.59,5.81,2,9.35,5,9.35,7.24s-3.83,5.57-10,7.63Zm-2.58,5.11a22.61,22.61,0,0,1,.3,8.29c-.37,2-1.13,3.36-2.06,3.9-2,1.15-6.21-.34-10.77-4.27-.52-.45-1-.93-1.58-1.44A62.46,62.46,0,0,0,1587,327a62.87,62.87,0,0,0,8.51-1.31c.13.51.24,1,.34,1.51Zm-26.08,12c-1.94.69-3.48.71-4.41.17-2-1.14-2.8-5.55-1.68-11.47.13-.7.29-1.39.46-2.08a65.11,65.11,0,0,0,8.46,1.22,65.81,65.81,0,0,0,5.39,6.66c-.39.38-.79.74-1.19,1.1a22.77,22.77,0,0,1-7,4.4Zm-9.06-17.11a23,23,0,0,1-7.33-3.89c-1.55-1.34-2.34-2.66-2.34-3.73,0-2.29,3.41-5.21,9.09-7.19.72-.25,1.44-.47,2.17-.68a62.08,62.08,0,0,0,3.06,7.93,65,65,0,0,0-3.1,8C1561.7,322.45,1561.18,322.28,1560.67,322.11Zm3-20.67c-1.18-6-.39-10.58,1.58-11.72s6.75.52,11.64,4.86c.32.28.63.57.94.87a64.68,64.68,0,0,0-5.34,6.62,66,66,0,0,0-8.38,1.31c-.16-.65-.31-1.29-.44-1.94Zm27.09,6.69c-.61-1.06-1.25-2.11-1.91-3.14,2,.25,3.93.59,5.73,1-.54,1.73-1.22,3.55-2,5.41-.58-1.1-1.18-2.19-1.81-3.27Zm-11-10.76c1.23,1.34,2.47,2.84,3.69,4.46-2.47-.12-5-.12-7.42,0,1.22-1.61,2.47-3.1,3.73-4.46Zm-11.12,10.78c-.62,1.07-1.21,2.15-1.77,3.25-.79-1.86-1.45-3.68-2-5.44,1.79-.4,3.7-.73,5.69-1C1569.89,306,1569.25,307.08,1568.63,308.15Zm2,16a57.07,57.07,0,0,1-5.79-.93c.56-1.79,1.24-3.65,2-5.55.57,1.1,1.16,2.18,1.78,3.25S1569.93,323.12,1570.61,324.18Zm9.21,7.61c-1.27-1.37-2.54-2.89-3.78-4.52,1.2.05,2.43.07,3.68.07s2.54,0,3.79-.08A58.1,58.1,0,0,1,1579.82,331.79Zm12.8-14.18a56,56,0,0,1,2.11,5.52,55.74,55.74,0,0,1-5.86,1c.67-1.05,1.31-2.12,1.93-3.2s1.24-2.2,1.82-3.32Zm-4.14,2c-1,1.66-2,3.28-3,4.87-1.87.13-3.79.2-5.75.2s-3.86-.06-5.69-.18c-1.08-1.59-2.11-3.21-3.07-4.87s-1.85-3.34-2.68-5.06q1.24-2.58,2.67-5.06h0c1-1.66,2-3.27,3-4.85,1.87-.14,3.78-.21,5.72-.21s3.86.07,5.72.21q1.61,2.37,3,4.83t2.71,5q-1.26,2.6-2.7,5.08Zm5.53-29.95c2.11,1.21,2.92,6.1,1.6,12.51-.08.42-.18.84-.28,1.25a63.14,63.14,0,0,0-8.4-1.32,63.31,63.31,0,0,0-5.3-6.63q.7-.68,1.44-1.32c4.64-4,9-5.63,10.94-4.49Z" transform="translate(-1513 -250)"/><path class="cls-9" d="M1579.72,308.88a5.61,5.61,0,1,1-5.61,5.61,5.61,5.61,0,0,1,5.61-5.61" transform="translate(-1513 -250)"/></svg>